<mxfile host="app.diagrams.net" modified="2024-07-01T12:49:10.612Z" agent="Mozilla/5.0 (Windows NT 10.0; Win64; x64) AppleWebKit/537.36 (KHTML, like Gecko) Chrome/126.0.0.0 Safari/537.36 Edg/126.0.0.0" version="24.6.2" etag="53-hocy37jLnYgDH3jsv" type="github">
  <diagram name="第 1 页" id="sLct_1djNsOaFHFiABok">
    <mxGraphModel>
      <root>
        <mxCell id="0" />
        <mxCell id="1" parent="0" />
      </root>
    </mxGraphModel>
  </diagram>
</mxfile>
